<?xml version="1.0" standalone="no"?>
<!DOCTYPE svg PUBLIC "-//W3C//DTD SVG 20010904//EN"
 "http://www.w3.org/TR/2001/REC-SVG-20010904/DTD/svg10.dtd">
<svg version="1.0" xmlns="http://www.w3.org/2000/svg"
 width="1524.000000pt" height="1559.000000pt" viewBox="0 0 1524.000000 1559.000000"
 preserveAspectRatio="xMidYMid meet">

<g transform="translate(0.000000,1559.000000) scale(0.100000,-0.100000)"
fill="#000000" stroke="none">
<path d="M9908 12735 c-312 -58 -675 -90 -1179 -106 -328 -10 -688 -3 -901 17
l-68 7 0 -97 c0 -69 4 -98 13 -100 6 -2 49 -8 95 -14 194 -26 327 -148 387
-356 47 -162 48 -172 52 -1109 l4 -887 -94 50 c-248 133 -524 190 -912 190
-405 0 -713 -66 -1020 -220 -352 -176 -622 -447 -818 -820 -231 -440 -339
-1005 -324 -1690 8 -355 33 -587 93 -871 112 -534 354 -990 674 -1267 269
-234 596 -371 981 -413 148 -16 449 -6 564 19 352 77 595 260 800 604 l50 83
3 -339 2 -338 33 6 c17 4 124 20 237 36 416 59 793 82 1358 84 395 0 415 0
428 -18 13 -19 24 -19 356 -7 189 7 638 15 998 18 595 5 843 1 1588 -24 l193
-6 -3 99 -3 99 -65 2 c-296 11 -481 72 -595 195 -66 71 -96 128 -129 242 -46
157 -48 231 -44 1871 l4 1540 23 80 c79 278 261 501 508 625 97 48 223 82 289
78 l47 -3 -76 -58 c-173 -133 -295 -300 -355 -487 -38 -119 -47 -182 -46 -340
0 -141 2 -162 27 -236 92 -276 336 -435 711 -463 224 -16 377 9 543 91 161 78
300 220 373 382 156 344 119 836 -84 1121 -101 140 -260 248 -436 296 -98 27
-345 36 -490 19 -406 -47 -731 -241 -941 -560 -38 -58 -75 -114 -83 -125 -13
-18 -15 19 -16 324 l0 343 -32 -5 c-241 -42 -544 -77 -838 -99 -190 -14 -1099
-17 -1292 -5 l-128 9 0 -96 0 -95 58 -6 c128 -13 227 -52 301 -119 42 -37 99
-135 125 -214 63 -190 59 -79 63 -1967 3 -1214 1 -1752 -7 -1830 -25 -246 -87
-373 -217 -442 -87 -47 -139 -57 -218 -44 -181 32 -293 135 -355 328 -63 197
-60 -9 -60 3684 0 2681 -3 3359 -12 3358 -7 -1 -70 -12 -140 -24z m-1818
-2755 c41 -12 108 -37 148 -56 l72 -35 0 -1853 c0 -2087 5 -1940 -76 -2106
-39 -78 -62 -109 -128 -175 -95 -93 -162 -136 -283 -178 -77 -27 -102 -31
-198 -31 -105 -1 -114 1 -176 31 -278 137 -427 604 -479 1503 -14 237 -14 954
0 1175 37 600 127 1041 270 1326 108 214 270 363 451 414 80 22 299 14 399
-15z"/>
<path d="M2495 10320 c-549 -45 -1041 -200 -1333 -420 -200 -150 -329 -335
-388 -556 -28 -102 -25 -348 5 -459 41 -152 124 -298 223 -392 150 -141 322
-204 553 -204 601 1 990 408 914 958 -43 319 -238 556 -576 701 -29 12 -53 27
-53 31 0 15 180 98 275 127 81 25 105 28 240 28 171 0 233 -12 355 -72 102
-50 201 -149 257 -257 94 -183 103 -257 103 -872 0 -327 -4 -510 -11 -545 -39
-184 -208 -343 -520 -492 -156 -74 -374 -159 -719 -281 -325 -114 -381 -136
-540 -216 -336 -167 -540 -354 -670 -614 -98 -197 -138 -394 -127 -635 14
-314 113 -549 313 -740 218 -208 515 -310 904 -310 563 0 1046 236 1347 657
l47 66 12 -79 c52 -366 304 -574 769 -635 118 -15 543 -6 684 15 202 31 374
80 519 148 92 43 261 153 269 174 4 11 -38 96 -76 153 -7 11 -21 5 -71 -29
-166 -112 -290 -127 -336 -38 -49 94 -47 29 -54 1803 -6 1459 -9 1675 -23
1782 -49 364 -134 567 -310 745 -246 248 -549 379 -1028 444 -135 18 -780 28
-954 14z m529 -4328 c-116 -107 -278 -146 -443 -107 -177 42 -287 168 -343
391 -19 78 -22 115 -22 289 0 223 16 324 75 492 81 229 176 368 423 623 193
197 282 296 327 360 l24 35 3 -1020 3 -1020 -47 -43z"/>
<path d="M5140 4299 c-55 -25 -114 -80 -143 -134 -22 -40 -22 -46 -22 -550 0
-504 0 -510 22 -550 51 -95 147 -154 249 -155 168 0 277 107 291 288 l6 82
-52 0 -51 0 0 -73 c0 -63 -4 -79 -29 -119 -48 -76 -151 -109 -234 -74 -43 17
-93 76 -106 123 -15 51 -15 905 0 956 13 47 63 106 106 123 83 35 186 2 234
-74 25 -40 29 -56 29 -119 l0 -73 51 0 52 0 -6 82 c-11 138 -76 234 -187 273
-61 21 -155 19 -210 -6z"/>
<path d="M6040 3615 l0 -705 45 0 45 0 2 328 3 327 52 3 c45 3 54 0 66 -20 8
-13 68 -161 133 -330 l118 -308 48 0 c26 0 48 2 48 5 0 2 -54 143 -119 312
-66 169 -121 314 -123 322 -2 8 16 20 51 32 75 26 134 78 168 147 27 55 28 62
28 217 0 155 -1 162 -28 217 -17 34 -46 72 -71 93 -70 57 -107 65 -297 65
l-169 0 0 -705z m387 583 c68 -45 83 -90 83 -253 0 -163 -15 -208 -83 -253
-38 -25 -49 -27 -169 -30 l-128 -4 0 287 0 287 128 -4 c120 -3 131 -5 169 -30z"/>
<path d="M7330 4314 c0 -8 -228 -1340 -236 -1376 -5 -28 -5 -28 43 -28 l48 0
28 168 c16 92 31 177 34 190 5 22 7 23 137 20 l131 -3 27 -155 c15 -85 30
-170 33 -187 6 -31 8 -33 50 -33 36 0 45 3 45 18 -1 9 -54 325 -118 702 l-118
685 -52 3 c-29 2 -52 0 -52 -4z m110 -584 c27 -162 53 -307 56 -322 l6 -28
-116 0 c-92 0 -116 3 -116 14 0 17 97 591 106 626 4 14 8 21 10 15 2 -5 26
-143 54 -305z"/>
<path d="M8170 3615 l0 -705 45 0 45 0 2 328 3 327 143 3 143 3 -3 42 -3 42
-142 3 -143 3 0 284 0 285 190 0 190 0 0 45 0 45 -235 0 -235 0 0 -705z"/>
<path d="M9140 4275 l0 -45 95 0 95 0 0 -660 0 -660 45 0 45 0 0 660 0 660 95
0 95 0 0 45 0 45 -235 0 -235 0 0 -45z"/>
</g>
</svg>
